<svg version="1.1" id="Layer_1" xmlns="http://www.w3.org/2000/svg" xmlns:xlink="http://www.w3.org/1999/xlink" x="0px" y="0px"
	 width="100%" viewBox="0 0 1000 1000" enable-background="new 0 0 1000 1000" xml:space="preserve">
<path fill="#000000" opacity="1.000000" stroke="none" 
	d="
M1001.000000,410.000000 
	C1001.000000,606.958557 1001.000000,803.917175 1001.000000,1000.937866 
	C667.778198,1000.937866 334.556366,1000.937866 1.000000,1000.937866 
	C1.000000,866.973328 1.000000,732.946411 1.403820,598.647461 
	C33.360359,592.481934 64.922462,586.638123 96.463936,580.684875 
	C171.473480,566.527405 246.467041,552.285278 321.478668,538.138794 
	C401.883331,522.975342 482.307068,507.913239 562.711670,492.749573 
	C637.886658,478.572205 713.043945,464.300720 788.215637,450.105988 
	C859.139282,436.713440 930.071533,423.366821 1001.000000,410.000000 
M216.254883,765.475403 
	C206.671982,761.067566 200.976700,753.267090 198.000946,743.521729 
	C191.766708,723.105042 191.656082,702.418762 197.410446,681.963135 
	C202.213623,664.888794 214.238907,655.586975 231.861435,654.180054 
	C245.364288,653.102051 258.870422,653.588928 271.850403,658.093140 
	C275.929840,659.508728 277.569855,658.539856 278.310883,654.326904 
	C279.259155,648.935791 280.825409,643.655396 282.061005,638.312439 
	C285.013885,625.543396 284.967133,625.646118 272.171509,621.852783 
	C256.394104,617.175415 240.198929,617.309265 224.085449,618.077087 
	C196.379883,619.397400 174.701981,631.458862 164.175873,657.889587 
	C150.713150,691.694031 150.524521,726.529846 162.076065,760.939819 
	C168.850937,781.120850 183.569626,794.130371 204.036728,800.391479 
	C218.740280,804.889587 233.809052,805.828064 249.012863,804.546265 
	C262.729706,803.389832 275.878326,799.911682 287.864532,792.940247 
	C289.545105,791.962769 291.447083,789.553833 291.460876,787.793518 
	C291.683960,759.300903 291.589050,730.805969 291.655212,702.311768 
	C291.663269,698.840027 290.264954,697.694336 286.861145,697.714783 
	C268.532104,697.825195 250.201736,697.823914 231.872665,697.716919 
	C228.395981,697.696655 227.128342,699.026917 227.181168,702.423828 
	C227.305557,710.420288 227.378906,718.424500 227.155243,726.416687 
	C227.036407,730.662476 228.800659,731.968994 232.815536,731.838623 
	C239.413437,731.624390 246.023361,731.780579 252.789062,731.780579 
	C252.789062,743.744080 252.789062,755.192383 252.789062,767.080139 
	C240.714417,769.104614 228.765854,770.225220 216.254883,765.475403 
M462.771057,729.499878 
	C462.771362,751.661194 462.855652,773.823181 462.696411,795.983337 
	C462.666901,800.092102 463.921692,801.579041 468.105530,801.467041 
	C477.263397,801.221741 486.438690,801.190186 495.594116,801.477966 
	C500.021729,801.617126 501.296722,800.116638 501.257202,795.747742 
	C501.061279,774.088074 501.167908,752.425720 501.167908,730.764282 
	C501.167908,729.001831 501.167908,727.239380 501.167908,725.541260 
	C518.729004,725.541260 535.615479,725.541260 552.771118,725.541260 
	C552.771118,727.728699 552.772888,729.544250 552.770813,731.359802 
	C552.746826,752.687622 552.862427,774.017151 552.592896,795.341858 
	C552.530579,800.271606 554.164856,801.651794 558.892578,801.483704 
	C567.879089,801.164185 576.887207,801.273560 585.881714,801.447998 
	C589.567566,801.519409 591.252930,800.632507 591.244385,796.464783 
	C591.129944,740.645203 591.141235,684.825256 591.227234,629.005615 
	C591.232971,625.279541 589.910645,624.002258 586.272156,624.061890 
	C576.943604,624.214722 567.605103,624.306641 558.282227,624.029724 
	C553.734314,623.894592 552.656677,625.730652 552.696411,629.930664 
	C552.869995,648.257935 552.771057,666.587708 552.771057,684.916626 
	C552.771057,686.542053 552.771057,688.167419 552.771057,690.037048 
	C535.405334,690.037048 518.508728,690.037048 501.167938,690.037048 
	C501.167938,688.156250 501.167938,686.529480 501.167908,684.902710 
	C501.167908,666.740417 500.981201,648.575073 501.285431,630.417847 
	C501.372925,625.197327 499.586517,623.824707 494.674744,624.019287 
	C486.190125,624.355591 477.682556,624.104675 469.184601,624.115112 
	C462.835175,624.122864 462.775330,624.175476 462.774078,630.523560 
	C462.767639,663.182312 462.771057,695.841125 462.771057,729.499878 
M852.210449,731.516968 
	C851.465637,724.753479 851.340637,717.850952 849.860168,711.252563 
	C845.366028,691.222412 833.315063,679.768982 814.241272,677.313110 
	C802.298401,675.775452 790.680359,677.578857 779.678955,682.722534 
	C778.290710,683.371521 776.841553,683.890015 775.117554,684.592468 
	C775.117554,665.804626 775.008728,647.643860 775.198608,629.486267 
	C775.242737,625.262756 773.759033,623.947144 769.687744,624.045532 
	C760.861572,624.258728 752.026733,624.105469 743.195435,624.113342 
	C736.619019,624.119202 736.608887,624.127075 736.608459,630.866272 
	C736.605347,679.355042 736.606750,727.843872 736.606812,776.332642 
	C736.606812,782.997742 736.790771,789.669861 736.538330,796.325378 
	C736.386292,800.333130 737.929565,801.644897 741.791870,801.451172 
	C746.611938,801.209351 751.453552,801.421692 756.285522,801.387085 
	C765.624451,801.320190 764.305908,802.305908 766.085693,793.498962 
	C766.125854,793.300232 766.515198,793.171997 766.743408,793.013428 
	C778.940918,800.689087 784.815613,803.210815 798.679504,804.448425 
	C829.181213,807.171326 844.861145,794.796997 849.819946,767.294006 
	C851.869690,755.925537 851.489746,744.119019 852.210449,731.516968 
M712.221863,801.520325 
	C715.684570,801.347290 719.792969,802.730652 719.772339,796.593567 
	C719.648071,759.617981 719.685486,722.641724 719.751648,685.665894 
	C719.758057,682.059204 718.480530,680.628418 714.766907,680.703308 
	C705.609924,680.888062 696.437622,681.005981 687.289612,680.665588 
	C682.390869,680.483398 681.027588,682.223999 681.066956,686.968445 
	C681.263367,710.618103 681.156616,734.270264 681.156555,757.921570 
	C681.156555,769.181274 680.450562,770.072571 669.381226,772.725952 
	C668.736267,772.880554 668.069946,772.945923 667.413391,773.051880 
	C651.429932,775.631897 646.192688,771.198608 646.179504,755.006531 
	C646.161011,732.188049 646.048584,709.368225 646.277832,686.552063 
	C646.325500,681.808960 644.740967,680.529846 640.235840,680.676880 
	C631.251221,680.970093 622.241943,680.994873 613.259705,680.668274 
	C608.588257,680.498413 607.248230,682.121643 607.289307,686.672119 
	C607.481567,707.989807 607.323486,729.310425 607.403320,750.629578 
	C607.430115,757.783936 607.450623,764.966492 608.067932,772.084656 
	C609.424866,787.730347 617.644348,798.810303 632.186096,802.145203 
	C641.418213,804.262390 651.446167,805.275024 660.758667,804.052490 
	C671.399292,802.655518 681.642090,798.228760 692.060974,795.117615 
	C693.957764,801.626587 693.957764,801.634827 702.294800,801.620972 
	C705.292175,801.616028 708.289368,801.560913 712.221863,801.520325 
M387.019867,788.392212 
	C391.480133,795.504883 397.920197,799.892578 405.917694,802.154175 
	C418.418060,805.689087 430.884399,805.305725 443.384369,802.059021 
	C446.188110,801.330750 447.074982,799.844116 447.016663,797.078918 
	C446.883148,790.751770 446.835754,784.414001 447.059723,778.091370 
	C447.198242,774.181274 445.863922,772.628845 441.840363,773.004211 
	C438.215881,773.342224 434.505707,773.437012 430.891235,773.069336 
	C422.806763,772.246948 419.051666,767.969543 419.016266,759.904602 
	C418.963593,747.910583 419.002411,735.916199 419.002319,723.921936 
	C419.002289,720.139404 419.002289,716.356812 419.002289,712.397034 
	C426.692444,712.397034 433.857025,712.225037 441.007874,712.463928 
	C445.050751,712.599060 446.741791,711.343628 446.583740,707.084839 
	C446.318268,699.931458 446.361755,692.756714 446.570648,685.599609 
	C446.683746,681.724609 445.319550,680.207275 441.374054,680.320618 
	C434.078735,680.530273 426.773071,680.380615 418.971130,680.380615 
	C418.971130,670.152100 418.855194,660.193298 419.036560,650.239929 
	C419.096802,646.934509 417.994354,645.908752 414.739105,645.967773 
	C405.246796,646.139893 395.743713,646.219238 386.256500,645.940186 
	C382.138367,645.819031 380.779266,646.998657 380.902496,651.224121 
	C381.197296,661.333191 380.997711,671.456665 380.997711,681.512390 
	C375.275421,682.873291 370.121887,684.159241 364.937988,685.308105 
	C362.068085,685.944153 360.806274,687.370300 360.931091,690.493591 
	C361.163696,696.314758 361.124878,702.155823 360.948181,707.980957 
	C360.848877,711.255859 362.180847,712.487488 365.343872,712.423340 
	C370.450439,712.319763 375.560577,712.395569 380.997711,712.395569 
	C380.997711,714.488281 380.996857,716.134949 380.997864,717.781677 
	C381.007355,733.440735 380.951508,749.100281 381.053986,764.758728 
	C381.106812,772.834045 382.533752,780.639404 387.019867,788.392212 
M333.467133,801.403809 
	C336.796570,801.403137 340.130676,801.291809 343.454254,801.431152 
	C347.190308,801.587769 348.933319,800.133362 348.927032,796.218384 
	C348.867371,759.095154 348.872955,721.971802 348.927185,684.848511 
	C348.931885,681.622925 347.564667,680.342773 344.446594,680.358704 
	C334.624969,680.409058 324.802643,680.419495 314.981232,680.351501 
	C311.687714,680.328674 310.078705,681.605225 310.082458,685.057190 
	C310.122925,722.014038 310.122528,758.970947 310.085144,795.927795 
	C310.081329,799.691895 311.746399,801.437012 315.498444,801.403870 
	C321.157990,801.353882 326.818359,801.399048 333.467133,801.403809 
M342.877472,666.454102 
	C351.228180,658.863953 353.461639,649.118530 348.945374,639.977600 
	C344.773285,631.533264 335.091095,626.576416 326.143707,628.448425 
	C317.175476,630.324829 311.156097,635.711914 309.136993,644.629639 
	C307.083069,653.701111 309.870758,661.563354 317.612213,666.960999 
	C325.690033,672.592896 334.083160,672.285217 342.877472,666.454102 
z"/>
<path fill="#F44D27" opacity="1.000000" stroke="none" 
	d="
M0.999997,589.000000 
	C1.000000,434.644012 1.000000,280.288055 1.461255,125.466171 
	C334.948334,125.000168 667.974182,125.000084 1001.000000,125.000000 
	C1001.000000,216.689316 1001.000000,308.378632 1000.613647,400.637421 
	C999.583923,401.380066 998.948730,401.597046 998.295898,401.720215 
	C932.753235,414.084839 867.210815,426.450287 801.665039,438.798157 
	C739.224976,450.560974 676.779541,462.295837 614.339600,474.059601 
	C548.304016,486.500793 482.271545,498.958191 416.238861,511.414948 
	C353.311401,523.285950 290.384766,535.161560 227.459030,547.041809 
	C161.101746,559.570007 94.751549,572.135925 28.382978,584.604065 
	C19.300570,586.310303 10.129833,587.546265 0.999997,589.000000 
M293.000580,250.668732 
	C293.020447,247.995377 294.199188,244.228271 292.874115,242.824326 
	C283.534515,232.928940 273.680023,223.519531 263.820892,213.788116 
	C262.556580,214.982285 261.335724,216.074875 260.181885,217.234131 
	C235.140320,242.393204 210.319061,267.777344 184.942184,292.593384 
	C177.231766,300.133392 177.340210,313.305481 185.032990,320.917786 
	C223.056808,358.543762 260.750610,396.508331 298.176270,434.730042 
	C307.213928,443.959930 318.925812,444.076416 328.109924,434.681702 
	C365.038483,396.906250 402.460999,359.613739 439.691803,322.133636 
	C450.058990,311.696991 450.072113,302.747742 439.763580,292.384094 
	C414.142456,266.626068 388.513306,240.876038 362.890625,215.119568 
	C350.432190,202.596085 338.039551,190.006378 325.502960,177.561661 
	C318.766479,170.874573 309.270569,169.266068 302.930298,174.989410 
	C293.624451,183.389694 285.290039,192.866089 276.139191,202.298904 
	C285.067627,211.059586 294.207306,219.827652 303.077209,228.860641 
	C305.530273,231.358841 307.757935,232.216156 311.306519,231.818710 
	C325.055176,230.278839 335.873260,242.015335 333.861542,255.590530 
	C333.583252,257.468536 334.330627,260.148254 335.612122,261.501068 
	C343.288727,269.604706 351.319336,277.371643 359.096436,285.382385 
	C361.311707,287.664215 363.206757,288.719574 366.779785,288.159027 
	C376.239624,286.674957 384.470764,291.643646 388.196472,300.134827 
	C391.846893,308.454468 389.833801,317.702820 383.038239,323.832184 
	C376.493835,329.734985 367.057556,330.744019 359.364868,326.363617 
	C351.380981,321.817352 347.664642,313.032990 349.298187,303.740173 
	C349.622345,301.896057 348.817535,299.201965 347.535797,297.835510 
	C340.583832,290.423981 333.329681,283.295166 326.146820,276.101776 
	C325.302582,275.256317 324.256897,274.612030 323.052094,273.678925 
	C322.840759,274.756012 322.666199,275.231659 322.665710,275.707489 
	C322.643738,298.205994 322.580872,320.704895 322.747681,343.202087 
	C322.759460,344.788940 324.131073,346.786743 325.459442,347.873322 
	C333.146912,354.161835 335.972504,363.165833 332.719452,371.958466 
	C329.614807,380.349945 321.608826,385.583069 312.419373,385.227661 
	C303.465698,384.881348 296.094177,378.871521 293.665619,369.938141 
	C291.269867,361.125397 294.850769,352.555634 302.783142,346.932861 
	C304.302704,345.855743 305.651825,343.368134 305.668243,341.518738 
	C305.865051,319.355133 305.855835,297.188660 305.676544,275.024750 
	C305.662720,273.315979 304.385895,271.016907 302.971619,270.022858 
	C296.489655,265.466766 292.865051,259.571045 293.000580,250.668732 
M504.839111,300.516876 
	C507.582611,312.295532 514.598511,320.956299 524.280151,326.686157 
	C519.099060,332.187927 514.268738,337.476868 509.264465,342.595703 
	C500.624420,351.433502 497.309204,366.389954 512.753113,375.428528 
	C510.212921,378.270050 507.533264,380.976532 505.190063,383.948273 
	C500.077576,390.432251 498.311096,397.852722 499.553436,406.008026 
	C501.538330,419.038208 510.698547,425.246338 522.038086,428.779602 
	C539.449219,434.204620 557.422302,434.631470 575.455933,433.421844 
	C587.315491,432.626373 598.875366,430.396057 609.656006,425.089569 
	C627.487732,416.312378 635.856873,401.286926 633.856323,381.572784 
	C632.554749,368.745850 626.101807,359.860657 613.689819,355.704834 
	C610.546143,354.652222 607.355652,353.455322 604.098999,353.074432 
	C591.052246,351.548553 577.981323,350.204193 564.898926,349.017822 
	C556.357605,348.243195 547.781189,347.856110 538.473450,347.246490 
	C540.866394,343.372986 542.935669,340.368225 544.633484,337.166534 
	C546.001465,334.586945 547.426086,333.866272 550.531372,334.479401 
	C562.250854,336.793365 574.023865,336.659027 585.717834,333.949005 
	C618.201660,326.420837 631.479919,294.835571 613.990417,266.713104 
	C613.616760,266.112244 613.489685,265.358093 613.176880,264.476074 
	C620.999329,263.835999 628.384155,263.231720 635.661682,262.636230 
	C635.661682,255.098282 635.661682,248.160950 635.661682,240.769531 
	C620.604309,240.769531 605.817871,240.786453 591.031616,240.750763 
	C588.880615,240.745575 586.675537,240.747635 584.588806,240.305664 
	C572.904480,237.831085 561.192932,237.628677 549.327881,238.897034 
	C516.607788,242.394806 498.097168,267.439789 504.839111,300.516876 
M752.000732,203.425415 
	C747.856750,226.506470 740.826599,234.071289 719.746338,238.163132 
	C719.468018,238.217148 719.240417,238.532562 718.626282,239.005249 
	C718.626282,242.376083 718.626282,246.019623 718.626282,249.663177 
	C718.626282,253.406860 718.626282,257.150543 718.626282,260.676666 
	C719.751831,260.958099 720.065918,261.102448 720.381348,261.105408 
	C724.046570,261.140045 727.712036,261.164337 731.377441,261.169891 
	C738.698120,261.180939 738.680847,261.175507 738.707153,268.539032 
	C738.791565,292.200287 738.518921,315.870667 739.104797,339.519684 
	C739.542419,357.180542 748.075989,367.723511 763.947937,371.310059 
	C783.421936,375.710449 801.966431,371.780548 819.860168,363.879822 
	C820.882141,363.428558 822.004883,361.179321 821.723450,360.131317 
	C819.921692,353.421906 817.740112,346.814484 815.695801,340.213531 
	C811.789246,341.212830 808.294006,342.357727 804.707642,342.955444 
	C800.950500,343.581543 797.103210,343.986603 793.299927,343.953735 
	C783.264160,343.867004 778.204468,339.576111 777.964417,329.520844 
	C777.435791,307.374115 777.562012,285.211731 777.446899,263.055542 
	C777.444458,262.597229 777.757019,262.137299 778.166382,261.002319 
	C790.501038,261.002319 803.024536,261.002319 815.381470,261.002319 
	C815.381470,252.069244 815.381470,243.842407 815.381470,235.191422 
	C802.690430,235.191422 790.406067,235.191422 777.482056,235.191422 
	C777.482056,222.035263 777.482056,209.299606 777.482056,196.371674 
	C768.940369,196.371674 761.051514,196.371674 753.128845,196.371674 
	C752.745972,198.633041 752.412720,200.601242 752.000732,203.425415 
M665.025513,299.500000 
	C665.025208,314.325256 664.834290,329.154388 665.133728,343.973602 
	C665.231262,348.801300 663.285034,350.525299 658.906372,350.885162 
	C655.320251,351.179901 651.762634,351.821716 648.251099,352.301605 
	C648.251099,359.334412 648.251099,365.903656 648.251099,372.510498 
	C672.634705,372.510498 696.685791,372.510498 720.735596,372.510498 
	C720.735596,365.573792 720.735596,358.980896 720.735596,352.267609 
	C717.338684,351.804993 714.227173,351.330750 711.102966,350.966003 
	C704.015991,350.138550 703.943542,350.105743 703.941956,343.136047 
	C703.934204,309.987427 703.937988,276.838776 703.937744,243.690140 
	C703.937744,241.932526 703.937805,240.174896 703.937805,238.396484 
	C685.815796,238.396484 668.409485,238.396484 650.637146,238.396484 
	C649.708557,245.459702 648.812073,252.278687 647.907593,259.158295 
	C652.255676,260.699615 655.950500,262.218628 659.768372,263.305603 
	C663.825134,264.460602 665.203918,266.874634 665.097900,271.016815 
	C664.863525,280.172485 665.025330,289.338318 665.025513,299.500000 
M699.115601,210.561646 
	C699.877014,209.475143 700.744019,208.447159 701.383789,207.293228 
	C709.047729,193.467896 703.000549,176.078003 689.144836,172.627167 
	C685.829163,171.801376 682.220825,171.985168 678.747437,171.988953 
	C668.157410,172.000458 661.169678,177.356094 658.716675,187.155426 
	C655.798523,198.813065 659.742371,210.103989 668.355469,214.750626 
	C677.625244,219.751495 690.642334,218.184921 699.115601,210.561646 
z"/>
<path fill="#000000" opacity="1.000000" stroke="none" 
	d="
M1001.000000,124.538742 
	C667.974182,125.000084 334.948334,125.000168 1.461255,125.000122 
	C1.000000,83.680664 1.000000,42.361332 1.000000,1.059581 
	C334.333344,1.059581 667.666687,1.059581 1001.000000,1.059581 
	C1001.000000,42.105270 1001.000000,83.091385 1001.000000,124.538742 
z"/>
<path fill="#FBF9F8" opacity="1.000000" stroke="none" 
	d="
M0.999997,589.449951 
	C10.129833,587.546265 19.300570,586.310303 28.382978,584.604065 
	C94.751549,572.135925 161.101746,559.570007 227.459030,547.041809 
	C290.384766,535.161560 353.311401,523.285950 416.238861,511.414948 
	C482.271545,498.958191 548.304016,486.500793 614.339600,474.059601 
	C676.779541,462.295837 739.224976,450.560974 801.665039,438.798157 
	C867.210815,426.450287 932.753235,414.084839 998.295898,401.720215 
	C998.948730,401.597046 999.583923,401.380066 1000.613647,401.103455 
	C1001.000000,403.700012 1001.000000,406.400024 1001.000000,409.550049 
	C930.071533,423.366821 859.139282,436.713440 788.215637,450.105988 
	C713.043945,464.300720 637.886658,478.572205 562.711670,492.749573 
	C482.307068,507.913239 401.883331,522.975342 321.478668,538.138794 
	C246.467041,552.285278 171.473480,566.527405 96.463936,580.684875 
	C64.922462,586.638123 33.360359,592.481934 1.403820,598.187744 
	C1.000000,595.299988 1.000000,592.599976 0.999997,589.449951 
z"/>
<path fill="#FDFDFD" opacity="1.000000" stroke="none" 
	d="
M216.598267,765.654968 
	C228.765854,770.225220 240.714417,769.104614 252.789062,767.080139 
	C252.789062,755.192383 252.789062,743.744080 252.789062,731.780579 
	C246.023361,731.780579 239.413437,731.624390 232.815536,731.838623 
	C228.800659,731.968994 227.036407,730.662476 227.155243,726.416687 
	C227.378906,718.424500 227.305557,710.420288 227.181168,702.423828 
	C227.128342,699.026917 228.395981,697.696655 231.872665,697.716919 
	C250.201736,697.823914 268.532104,697.825195 286.861145,697.714783 
	C290.264954,697.694336 291.663269,698.840027 291.655212,702.311768 
	C291.589050,730.805969 291.683960,759.300903 291.460876,787.793518 
	C291.447083,789.553833 289.545105,791.962769 287.864532,792.940247 
	C275.878326,799.911682 262.729706,803.389832 249.012863,804.546265 
	C233.809052,805.828064 218.740280,804.889587 204.036728,800.391479 
	C183.569626,794.130371 168.850937,781.120850 162.076065,760.939819 
	C150.524521,726.529846 150.713150,691.694031 164.175873,657.889587 
	C174.701981,631.458862 196.379883,619.397400 224.085449,618.077087 
	C240.198929,617.309265 256.394104,617.175415 272.171509,621.852783 
	C284.967133,625.646118 285.013885,625.543396 282.061005,638.312439 
	C280.825409,643.655396 279.259155,648.935791 278.310883,654.326904 
	C277.569855,658.539856 275.929840,659.508728 271.850403,658.093140 
	C258.870422,653.588928 245.364288,653.102051 231.861435,654.180054 
	C214.238907,655.586975 202.213623,664.888794 197.410446,681.963135 
	C191.656082,702.418762 191.766708,723.105042 198.000946,743.521729 
	C200.976700,753.267090 206.671982,761.067566 216.598267,765.654968 
z"/>
<path fill="#FEFEFE" opacity="1.000000" stroke="none" 
	d="
M462.771057,728.999878 
	C462.771057,695.841125 462.767639,663.182312 462.774078,630.523560 
	C462.775330,624.175476 462.835175,624.122864 469.184601,624.115112 
	C477.682556,624.104675 486.190125,624.355591 494.674744,624.019287 
	C499.586517,623.824707 501.372925,625.197327 501.285431,630.417847 
	C500.981201,648.575073 501.167908,666.740417 501.167908,684.902710 
	C501.167938,686.529480 501.167938,688.156250 501.167938,690.037048 
	C518.508728,690.037048 535.405334,690.037048 552.771057,690.037048 
	C552.771057,688.167419 552.771057,686.542053 552.771057,684.916626 
	C552.771057,666.587708 552.869995,648.257935 552.696411,629.930664 
	C552.656677,625.730652 553.734314,623.894592 558.282227,624.029724 
	C567.605103,624.306641 576.943604,624.214722 586.272156,624.061890 
	C589.910645,624.002258 591.232971,625.279541 591.227234,629.005615 
	C591.141235,684.825256 591.129944,740.645203 591.244385,796.464783 
	C591.252930,800.632507 589.567566,801.519409 585.881714,801.447998 
	C576.887207,801.273560 567.879089,801.164185 558.892578,801.483704 
	C554.164856,801.651794 552.530579,800.271606 552.592896,795.341858 
	C552.862427,774.017151 552.746826,752.687622 552.770813,731.359802 
	C552.772888,729.544250 552.771118,727.728699 552.771118,725.541260 
	C535.615479,725.541260 518.729004,725.541260 501.167908,725.541260 
	C501.167908,727.239380 501.167908,729.001831 501.167908,730.764282 
	C501.167908,752.425720 501.061279,774.088074 501.257202,795.747742 
	C501.296722,800.116638 500.021729,801.617126 495.594116,801.477966 
	C486.438690,801.190186 477.263397,801.221741 468.105530,801.467041 
	C463.921692,801.579041 462.666901,800.092102 462.696411,795.983337 
	C462.855652,773.823181 462.771362,751.661194 462.771057,728.999878 
z"/>
<path fill="#FEFEFE" opacity="1.000000" stroke="none" 
	d="
M852.212646,732.014343 
	C851.489746,744.119019 851.869690,755.925537 849.819946,767.294006 
	C844.861145,794.796997 829.181213,807.171326 798.679504,804.448425 
	C784.815613,803.210815 778.940918,800.689087 766.742493,793.012146 
	C766.515198,793.171997 766.125854,793.300232 766.085693,793.498962 
	C764.305908,802.305908 765.624451,801.320190 756.285522,801.387085 
	C751.453552,801.421692 746.611938,801.209351 741.791870,801.451172 
	C737.929565,801.644897 736.386292,800.333130 736.538330,796.325378 
	C736.790771,789.669861 736.606812,782.997742 736.606812,776.332642 
	C736.606750,727.843872 736.605347,679.355042 736.608459,630.866272 
	C736.608887,624.127075 736.619019,624.119202 743.195435,624.113342 
	C752.026733,624.105469 760.861572,624.258728 769.687744,624.045532 
	C773.759033,623.947144 775.242737,625.262756 775.198608,629.486267 
	C775.008728,647.643860 775.117554,665.804626 775.117554,684.592468 
	C776.841553,683.890015 778.290710,683.371521 779.678955,682.722534 
	C790.680359,677.578857 802.298401,675.775452 814.241272,677.313110 
	C833.315063,679.768982 845.366028,691.222412 849.860168,711.252563 
	C851.340637,717.850952 851.465637,724.753479 852.212646,732.014343 
M774.379700,756.461060 
	C774.379517,769.946045 775.730713,771.506104 789.473938,773.113770 
	C792.586365,773.477844 795.773499,773.484924 798.908325,773.318176 
	C806.145386,772.933167 810.599121,768.960022 812.220276,762.005249 
	C815.280945,748.875122 815.707214,735.601318 812.603882,722.480408 
	C810.123230,711.992126 802.837097,707.012390 792.361816,708.305969 
	C787.487732,708.907837 782.759949,710.718750 777.976624,712.021423 
	C775.170837,712.785583 774.262817,714.560608 774.304688,717.547058 
	C774.481812,730.187256 774.379700,742.831360 774.379700,756.461060 
z"/>
<path fill="#FCFCFC" opacity="1.000000" stroke="none" 
	d="
M711.754272,801.524536 
	C708.289368,801.560913 705.292175,801.616028 702.294800,801.620972 
	C693.957764,801.634827 693.957764,801.626587 692.060974,795.117615 
	C681.642090,798.228760 671.399292,802.655518 660.758667,804.052490 
	C651.446167,805.275024 641.418213,804.262390 632.186096,802.145203 
	C617.644348,798.810303 609.424866,787.730347 608.067932,772.084656 
	C607.450623,764.966492 607.430115,757.783936 607.403320,750.629578 
	C607.323486,729.310425 607.481567,707.989807 607.289307,686.672119 
	C607.248230,682.121643 608.588257,680.498413 613.259705,680.668274 
	C622.241943,680.994873 631.251221,680.970093 640.235840,680.676880 
	C644.740967,680.529846 646.325500,681.808960 646.277832,686.552063 
	C646.048584,709.368225 646.161011,732.188049 646.179504,755.006531 
	C646.192688,771.198608 651.429932,775.631897 667.413391,773.051880 
	C668.069946,772.945923 668.736267,772.880554 669.381226,772.725952 
	C680.450562,770.072571 681.156555,769.181274 681.156555,757.921570 
	C681.156616,734.270264 681.263367,710.618103 681.066956,686.968445 
	C681.027588,682.223999 682.390869,680.483398 687.289612,680.665588 
	C696.437622,681.005981 705.609924,680.888062 714.766907,680.703308 
	C718.480530,680.628418 719.758057,682.059204 719.751648,685.665894 
	C719.685486,722.641724 719.648071,759.617981 719.772339,796.593567 
	C719.792969,802.730652 715.684570,801.347290 711.754272,801.524536 
z"/>
<path fill="#FDFDFD" opacity="1.000000" stroke="none" 
	d="
M386.844604,788.070923 
	C382.533752,780.639404 381.106812,772.834045 381.053986,764.758728 
	C380.951508,749.100281 381.007355,733.440735 380.997864,717.781677 
	C380.996857,716.134949 380.997711,714.488281 380.997711,712.395569 
	C375.560577,712.395569 370.450439,712.319763 365.343872,712.423340 
	C362.180847,712.487488 360.848877,711.255859 360.948181,707.980957 
	C361.124878,702.155823 361.163696,696.314758 360.931091,690.493591 
	C360.806274,687.370300 362.068085,685.944153 364.937988,685.308105 
	C370.121887,684.159241 375.275421,682.873291 380.997711,681.512390 
	C380.997711,671.456665 381.197296,661.333191 380.902496,651.224121 
	C380.779266,646.998657 382.138367,645.819031 386.256500,645.940186 
	C395.743713,646.219238 405.246796,646.139893 414.739105,645.967773 
	C417.994354,645.908752 419.096802,646.934509 419.036560,650.239929 
	C418.855194,660.193298 418.971130,670.152100 418.971130,680.380615 
	C426.773071,680.380615 434.078735,680.530273 441.374054,680.320618 
	C445.319550,680.207275 446.683746,681.724609 446.570648,685.599609 
	C446.361755,692.756714 446.318268,699.931458 446.583740,707.084839 
	C446.741791,711.343628 445.050751,712.599060 441.007874,712.463928 
	C433.857025,712.225037 426.692444,712.397034 419.002289,712.397034 
	C419.002289,716.356812 419.002289,720.139404 419.002319,723.921936 
	C419.002411,735.916199 418.963593,747.910583 419.016266,759.904602 
	C419.051666,767.969543 422.806763,772.246948 430.891235,773.069336 
	C434.505707,773.437012 438.215881,773.342224 441.840363,773.004211 
	C445.863922,772.628845 447.198242,774.181274 447.059723,778.091370 
	C446.835754,784.414001 446.883148,790.751770 447.016663,797.078918 
	C447.074982,799.844116 446.188110,801.330750 443.384369,802.059021 
	C430.884399,805.305725 418.418060,805.689087 405.917694,802.154175 
	C397.920197,799.892578 391.480133,795.504883 386.844604,788.070923 
z"/>
<path fill="#FCFCFC" opacity="1.000000" stroke="none" 
	d="
M332.972778,801.403809 
	C326.818359,801.399048 321.157990,801.353882 315.498444,801.403870 
	C311.746399,801.437012 310.081329,799.691895 310.085144,795.927795 
	C310.122528,758.970947 310.122925,722.014038 310.082458,685.057190 
	C310.078705,681.605225 311.687714,680.328674 314.981232,680.351501 
	C324.802643,680.419495 334.624969,680.409058 344.446594,680.358704 
	C347.564667,680.342773 348.931885,681.622925 348.927185,684.848511 
	C348.872955,721.971802 348.867371,759.095154 348.927032,796.218384 
	C348.933319,800.133362 347.190308,801.587769 343.454254,801.431152 
	C340.130676,801.291809 336.796570,801.403137 332.972778,801.403809 
z"/>
<path fill="#FCFCFC" opacity="1.000000" stroke="none" 
	d="
M342.588593,666.676025 
	C334.083160,672.285217 325.690033,672.592896 317.612213,666.960999 
	C309.870758,661.563354 307.083069,653.701111 309.136993,644.629639 
	C311.156097,635.711914 317.175476,630.324829 326.143707,628.448425 
	C335.091095,626.576416 344.773285,631.533264 348.945374,639.977600 
	C353.461639,649.118530 351.228180,658.863953 342.588593,666.676025 
z"/>
<path fill="#FFFEFE" opacity="1.000000" stroke="none" 
	d="
M292.989807,251.107452 
	C292.865051,259.571045 296.489655,265.466766 302.971619,270.022858 
	C304.385895,271.016907 305.662720,273.315979 305.676544,275.024750 
	C305.855835,297.188660 305.865051,319.355133 305.668243,341.518738 
	C305.651825,343.368134 304.302704,345.855743 302.783142,346.932861 
	C294.850769,352.555634 291.269867,361.125397 293.665619,369.938141 
	C296.094177,378.871521 303.465698,384.881348 312.419373,385.227661 
	C321.608826,385.583069 329.614807,380.349945 332.719452,371.958466 
	C335.972504,363.165833 333.146912,354.161835 325.459442,347.873322 
	C324.131073,346.786743 322.759460,344.788940 322.747681,343.202087 
	C322.580872,320.704895 322.643738,298.205994 322.665710,275.707489 
	C322.666199,275.231659 322.840759,274.756012 323.052094,273.678925 
	C324.256897,274.612030 325.302582,275.256317 326.146820,276.101776 
	C333.329681,283.295166 340.583832,290.423981 347.535797,297.835510 
	C348.817535,299.201965 349.622345,301.896057 349.298187,303.740173 
	C347.664642,313.032990 351.380981,321.817352 359.364868,326.363617 
	C367.057556,330.744019 376.493835,329.734985 383.038239,323.832184 
	C389.833801,317.702820 391.846893,308.454468 388.196472,300.134827 
	C384.470764,291.643646 376.239624,286.674957 366.779785,288.159027 
	C363.206757,288.719574 361.311707,287.664215 359.096436,285.382385 
	C351.319336,277.371643 343.288727,269.604706 335.612122,261.501068 
	C334.330627,260.148254 333.583252,257.468536 333.861542,255.590530 
	C335.873260,242.015335 325.055176,230.278839 311.306519,231.818710 
	C307.757935,232.216156 305.530273,231.358841 303.077209,228.860641 
	C294.207306,219.827652 285.067627,211.059586 276.139191,202.298904 
	C285.290039,192.866089 293.624451,183.389694 302.930298,174.989410 
	C309.270569,169.266068 318.766479,170.874573 325.502960,177.561661 
	C338.039551,190.006378 350.432190,202.596085 362.890625,215.119568 
	C388.513306,240.876038 414.142456,266.626068 439.763580,292.384094 
	C450.072113,302.747742 450.058990,311.696991 439.691803,322.133636 
	C402.460999,359.613739 365.038483,396.906250 328.109924,434.681702 
	C318.925812,444.076416 307.213928,443.959930 298.176270,434.730042 
	C260.750610,396.508331 223.056808,358.543762 185.032990,320.917786 
	C177.340210,313.305481 177.231766,300.133392 184.942184,292.593384 
	C210.319061,267.777344 235.140320,242.393204 260.181885,217.234131 
	C261.335724,216.074875 262.556580,214.982285 263.820892,213.788116 
	C273.680023,223.519531 283.534515,232.928940 292.874115,242.824326 
	C294.199188,244.228271 293.020447,247.995377 292.989807,251.107452 
z"/>
<path fill="#FFFEFD" opacity="1.000000" stroke="none" 
	d="
M504.731445,300.115356 
	C498.097168,267.439789 516.607788,242.394806 549.327881,238.897034 
	C561.192932,237.628677 572.904480,237.831085 584.588806,240.305664 
	C586.675537,240.747635 588.880615,240.745575 591.031616,240.750763 
	C605.817871,240.786453 620.604309,240.769531 635.661682,240.769531 
	C635.661682,248.160950 635.661682,255.098282 635.661682,262.636230 
	C628.384155,263.231720 620.999329,263.835999 613.176880,264.476074 
	C613.489685,265.358093 613.616760,266.112244 613.990417,266.713104 
	C631.479919,294.835571 618.201660,326.420837 585.717834,333.949005 
	C574.023865,336.659027 562.250854,336.793365 550.531372,334.479401 
	C547.426086,333.866272 546.001465,334.586945 544.633484,337.166534 
	C542.935669,340.368225 540.866394,343.372986 538.473450,347.246490 
	C547.781189,347.856110 556.357605,348.243195 564.898926,349.017822 
	C577.981323,350.204193 591.052246,351.548553 604.098999,353.074432 
	C607.355652,353.455322 610.546143,354.652222 613.689819,355.704834 
	C626.101807,359.860657 632.554749,368.745850 633.856323,381.572784 
	C635.856873,401.286926 627.487732,416.312378 609.656006,425.089569 
	C598.875366,430.396057 587.315491,432.626373 575.455933,433.421844 
	C557.422302,434.631470 539.449219,434.204620 522.038086,428.779602 
	C510.698547,425.246338 501.538330,419.038208 499.553436,406.008026 
	C498.311096,397.852722 500.077576,390.432251 505.190063,383.948273 
	C507.533264,380.976532 510.212921,378.270050 512.753113,375.428528 
	C497.309204,366.389954 500.624420,351.433502 509.264465,342.595703 
	C514.268738,337.476868 519.099060,332.187927 524.280151,326.686157 
	C514.598511,320.956299 507.582611,312.295532 504.731445,300.115356 
M587.802551,284.767120 
	C586.913879,275.223969 583.181152,267.163788 573.138977,265.205902 
	C566.866760,263.983032 559.686035,263.953278 553.631287,265.775177 
	C539.231567,270.108154 534.510437,293.068329 545.766174,302.957703 
	C554.355469,310.504333 564.767517,310.537964 574.918457,306.653351 
	C584.236511,303.087463 587.954041,295.364471 587.802551,284.767120 
M562.464783,384.030060 
	C554.827271,383.509430 547.192749,382.932434 539.549377,382.520813 
	C538.197083,382.447998 536.278625,382.594757 535.524902,383.442841 
	C531.810852,387.621796 528.701843,392.275543 530.009460,398.277100 
	C531.204468,403.761841 535.673218,406.505219 540.506897,406.911896 
	C552.371399,407.910156 564.311584,408.353760 576.218872,408.312775 
	C580.367798,408.298523 584.690918,406.632996 588.609802,404.960663 
	C593.777466,402.755341 596.459961,397.931885 595.718079,393.479492 
	C594.788086,387.898499 590.323669,386.605591 585.769775,386.060028 
	C578.341675,385.170135 570.861755,384.712311 562.464783,384.030060 
z"/>
<path fill="#FFFEFE" opacity="1.000000" stroke="none" 
	d="
M752.040100,202.997421 
	C752.412720,200.601242 752.745972,198.633041 753.128845,196.371674 
	C761.051514,196.371674 768.940369,196.371674 777.482056,196.371674 
	C777.482056,209.299606 777.482056,222.035263 777.482056,235.191422 
	C790.406067,235.191422 802.690430,235.191422 815.381470,235.191422 
	C815.381470,243.842407 815.381470,252.069244 815.381470,261.002319 
	C803.024536,261.002319 790.501038,261.002319 778.166382,261.002319 
	C777.757019,262.137299 777.444458,262.597229 777.446899,263.055542 
	C777.562012,285.211731 777.435791,307.374115 777.964417,329.520844 
	C778.204468,339.576111 783.264160,343.867004 793.299927,343.953735 
	C797.103210,343.986603 800.950500,343.581543 804.707642,342.955444 
	C808.294006,342.357727 811.789246,341.212830 815.695801,340.213531 
	C817.740112,346.814484 819.921692,353.421906 821.723450,360.131317 
	C822.004883,361.179321 820.882141,363.428558 819.860168,363.879822 
	C801.966431,371.780548 783.421936,375.710449 763.947937,371.310059 
	C748.075989,367.723511 739.542419,357.180542 739.104797,339.519684 
	C738.518921,315.870667 738.791565,292.200287 738.707153,268.539032 
	C738.680847,261.175507 738.698120,261.180939 731.377441,261.169891 
	C727.712036,261.164337 724.046570,261.140045 720.381348,261.105408 
	C720.065918,261.102448 719.751831,260.958099 718.626282,260.676666 
	C718.626282,257.150543 718.626282,253.406860 718.626282,249.663177 
	C718.626282,246.019623 718.626282,242.376083 718.626282,239.005249 
	C719.240417,238.532562 719.468018,238.217148 719.746338,238.163132 
	C740.826599,234.071289 747.856750,226.506470 752.040100,202.997421 
z"/>
<path fill="#FFFDFD" opacity="1.000000" stroke="none" 
	d="
M665.025513,299.000000 
	C665.025330,289.338318 664.863525,280.172485 665.097900,271.016815 
	C665.203918,266.874634 663.825134,264.460602 659.768372,263.305603 
	C655.950500,262.218628 652.255676,260.699615 647.907593,259.158295 
	C648.812073,252.278687 649.708557,245.459702 650.637146,238.396484 
	C668.409485,238.396484 685.815796,238.396484 703.937805,238.396484 
	C703.937805,240.174896 703.937744,241.932526 703.937744,243.690140 
	C703.937988,276.838776 703.934204,309.987427 703.941956,343.136047 
	C703.943542,350.105743 704.015991,350.138550 711.102966,350.966003 
	C714.227173,351.330750 717.338684,351.804993 720.735596,352.267609 
	C720.735596,358.980896 720.735596,365.573792 720.735596,372.510498 
	C696.685791,372.510498 672.634705,372.510498 648.251099,372.510498 
	C648.251099,365.903656 648.251099,359.334412 648.251099,352.301605 
	C651.762634,351.821716 655.320251,351.179901 658.906372,350.885162 
	C663.285034,350.525299 665.231262,348.801300 665.133728,343.973602 
	C664.834290,329.154388 665.025208,314.325256 665.025513,299.000000 
z"/>
<path fill="#FFFEFD" opacity="1.000000" stroke="none" 
	d="
M698.872925,210.834381 
	C690.642334,218.184921 677.625244,219.751495 668.355469,214.750626 
	C659.742371,210.103989 655.798523,198.813065 658.716675,187.155426 
	C661.169678,177.356094 668.157410,172.000458 678.747437,171.988953 
	C682.220825,171.985168 685.829163,171.801376 689.144836,172.627167 
	C703.000549,176.078003 709.047729,193.467896 701.383789,207.293228 
	C700.744019,208.447159 699.877014,209.475143 698.872925,210.834381 
z"/>
<path fill="#040404" opacity="1.000000" stroke="none" 
	d="
M774.379700,755.967529 
	C774.379700,742.831360 774.481812,730.187256 774.304688,717.547058 
	C774.262817,714.560608 775.170837,712.785583 777.976624,712.021423 
	C782.759949,710.718750 787.487732,708.907837 792.361816,708.305969 
	C802.837097,707.012390 810.123230,711.992126 812.603882,722.480408 
	C815.707214,735.601318 815.280945,748.875122 812.220276,762.005249 
	C810.599121,768.960022 806.145386,772.933167 798.908325,773.318176 
	C795.773499,773.484924 792.586365,773.477844 789.473938,773.113770 
	C775.730713,771.506104 774.379517,769.946045 774.379700,755.967529 
z"/>
<path fill="#F44F29" opacity="1.000000" stroke="none" 
	d="
M587.817871,285.200134 
	C587.954041,295.364471 584.236511,303.087463 574.918457,306.653351 
	C564.767517,310.537964 554.355469,310.504333 545.766174,302.957703 
	C534.510437,293.068329 539.231567,270.108154 553.631287,265.775177 
	C559.686035,263.953278 566.866760,263.983032 573.138977,265.205902 
	C583.181152,267.163788 586.913879,275.223969 587.817871,285.200134 
z"/>
<path fill="#F44F2A" opacity="1.000000" stroke="none" 
	d="
M562.934265,384.051147 
	C570.861755,384.712311 578.341675,385.170135 585.769775,386.060028 
	C590.323669,386.605591 594.788086,387.898499 595.718079,393.479492 
	C596.459961,397.931885 593.777466,402.755341 588.609802,404.960663 
	C584.690918,406.632996 580.367798,408.298523 576.218872,408.312775 
	C564.311584,408.353760 552.371399,407.910156 540.506897,406.911896 
	C535.673218,406.505219 531.204468,403.761841 530.009460,398.277100 
	C528.701843,392.275543 531.810852,387.621796 535.524902,383.442841 
	C536.278625,382.594757 538.197083,382.447998 539.549377,382.520813 
	C547.192749,382.932434 554.827271,383.509430 562.934265,384.051147 
z"/>
</svg>