<svg version="1.1" id="Layer_1" xmlns="http://www.w3.org/2000/svg" xmlns:xlink="http://www.w3.org/1999/xlink" x="0px" y="0px"
	 width="100%" viewBox="0 0 1710 440" enable-background="new 0 0 1710 440" xml:space="preserve">
<path fill="#FFFEFE" opacity="1.000000" stroke="none" 
	d="
M1232.000000,441.000000 
	C821.380920,441.000000 411.261871,441.000000 1.071400,441.000000 
	C1.071400,294.397980 1.071400,147.795929 1.071400,1.096931 
	C571.000000,1.096931 1141.000000,1.096931 1710.971680,1.096931 
	C1710.971680,147.738419 1710.971680,294.369202 1710.971680,441.000000 
	C1551.462280,441.000000 1391.981201,441.000000 1232.000000,441.000000 
M106.932137,320.565948 
	C119.299187,332.926361 131.625778,345.327637 144.048248,357.632111 
	C151.638321,365.150116 160.867508,365.169128 168.386383,357.660767 
	C203.253830,322.842224 238.106842,288.009094 272.893646,253.110031 
	C282.705963,243.266083 282.467865,235.019257 272.577057,225.158295 
	C250.534561,203.182266 228.510895,181.187363 206.501709,159.177979 
	C193.790421,146.466583 181.152939,133.681290 168.423523,120.988136 
	C160.397415,112.984894 150.904846,113.078987 142.904404,121.098686 
	C139.493866,124.517433 136.075378,127.928268 132.672913,131.355011 
	C129.096252,134.957184 125.534454,138.574112 121.936684,142.214432 
	C122.781761,143.236526 123.161217,143.778641 123.621613,144.239960 
	C131.856552,152.491272 140.037964,160.798355 148.422913,168.894577 
	C149.488602,169.923569 151.680573,170.347321 153.265015,170.189667 
	C166.781998,168.844650 176.169525,178.018967 175.247620,191.444244 
	C175.093475,193.688934 176.197678,196.599106 177.731979,198.276489 
	C183.235199,204.292831 189.372635,209.728943 194.878036,215.743469 
	C198.762909,219.987595 202.529877,222.346466 208.881058,221.931915 
	C219.114151,221.264008 227.272278,230.661545 226.899231,241.051086 
	C226.516953,251.697678 217.867584,259.592834 207.067291,259.153748 
	C196.923660,258.741364 187.816513,249.460724 189.448257,239.567902 
	C190.437531,233.570297 188.350784,230.245132 184.474136,226.832367 
	C182.478088,225.075165 180.624054,223.147903 178.788925,221.218475 
	C174.609085,216.823822 170.480499,212.380432 165.488052,207.058105 
	C165.034103,209.453262 164.822678,210.049149 164.822464,210.645096 
	C164.814758,230.973648 164.757492,251.302902 164.959427,271.629547 
	C164.976913,273.389832 166.318680,275.622162 167.737946,276.801941 
	C175.096100,282.918274 177.527039,292.147614 173.526291,300.095367 
	C169.898239,307.302734 162.345108,311.650635 154.812683,310.867645 
	C146.958862,310.051270 140.291580,304.424500 138.272476,296.908783 
	C136.246445,289.367310 138.970978,281.311066 145.753067,276.691498 
	C148.470078,274.840820 149.346069,272.971649 149.323654,269.806274 
	C149.184418,250.144852 149.207474,230.481735 149.303757,210.819809 
	C149.318024,207.905853 148.670807,206.028687 145.979614,204.308304 
	C140.798859,200.996460 136.586395,195.625885 138.059769,189.757629 
	C140.269409,180.956879 134.801712,177.087799 129.990067,172.274857 
	C126.929810,169.213776 123.924484,166.097443 120.845367,163.055664 
	C117.583328,159.833206 114.263046,156.669708 110.970375,153.482559 
	C109.922775,154.292953 109.350960,154.644333 108.888977,155.105698 
	C84.975525,178.987961 60.991848,202.800781 37.212357,226.815781 
	C29.587193,234.516464 30.060946,243.700531 37.900459,251.544830 
	C60.735680,274.394012 83.602135,297.212006 106.932137,320.565948 
M993.885132,284.137573 
	C977.124878,282.397827 966.897156,272.631409 962.171021,257.119080 
	C956.270447,237.751434 956.158569,217.979843 961.025879,198.407990 
	C966.048523,178.211945 977.902161,168.089676 998.552307,166.193344 
	C1012.543457,164.908493 1026.519043,165.703171 1040.129028,169.816925 
	C1046.366577,171.702301 1046.443237,171.606705 1048.046631,165.024902 
	C1049.266968,160.016006 1050.558472,155.024338 1051.762451,150.011581 
	C1054.988770,136.577438 1055.020142,136.405945 1041.499146,132.926056 
	C1022.925842,128.145874 1004.004883,126.888313 984.996094,129.155746 
	C953.230103,132.944885 931.684326,149.769684 922.699768,180.828171 
	C914.245911,210.052246 913.721069,239.674301 922.017883,269.048370 
	C928.783752,293.002075 944.016418,309.584015 968.174866,316.685516 
	C977.190063,319.335541 986.716125,320.723053 996.108093,321.519135 
	C1017.065369,323.295532 1037.266357,319.836548 1056.276733,310.527863 
	C1059.165894,309.113098 1062.038452,307.905548 1062.006958,303.424896 
	C1061.802612,274.435944 1061.869629,245.444641 1061.965454,216.454498 
	C1061.978027,212.645981 1060.670654,211.028046 1056.747681,211.048706 
	C1037.421143,211.150589 1018.093628,211.155090 998.767212,211.051819 
	C995.102295,211.032257 993.716980,212.366150 993.800232,216.045563 
	C993.977356,223.872299 993.846497,231.705841 993.855469,239.536575 
	C993.863037,246.134552 993.871582,246.134491 1000.518921,246.134430 
	C1007.270203,246.134384 1014.021423,246.134430 1020.971069,246.134430 
	C1020.971069,257.824280 1020.877930,268.647583 1021.032776,279.467346 
	C1021.074524,282.384033 1019.814636,283.318359 1017.248657,283.401703 
	C1009.769226,283.644531 1002.290527,283.909698 993.885132,284.137573 
M1386.730713,166.500107 
	C1386.722412,157.835648 1386.585327,149.168518 1386.765015,140.507950 
	C1386.844971,136.652832 1385.477417,135.102234 1381.560181,135.160324 
	C1371.565063,135.308578 1361.563843,135.331757 1351.570312,135.134842 
	C1347.294312,135.050568 1345.694580,136.517380 1345.743286,140.926376 
	C1345.934326,158.253159 1345.822021,175.583298 1345.822021,192.912186 
	C1345.822144,196.208817 1345.822021,199.505447 1345.822021,203.068512 
	C1325.807129,203.068512 1306.262573,203.068512 1286.345215,203.068512 
	C1286.345215,200.935837 1286.345093,199.132858 1286.345215,197.329865 
	C1286.347168,178.667969 1286.191772,160.003860 1286.456299,141.345688 
	C1286.526733,136.377335 1284.787109,134.997330 1280.086914,135.131805 
	C1270.430542,135.408066 1260.759888,135.293976 1251.097046,135.179184 
	C1247.462402,135.136017 1245.677124,136.093536 1245.684570,140.252304 
	C1245.788086,197.904022 1245.773560,255.556015 1245.692017,313.207794 
	C1245.686890,316.856018 1246.830078,318.234283 1250.584106,318.161011 
	C1260.577637,317.965851 1270.587646,317.829987 1280.570801,318.209137 
	C1285.413574,318.393097 1286.466431,316.604370 1286.431152,312.168854 
	C1286.253784,289.842651 1286.347046,267.514282 1286.345459,245.186661 
	C1286.345337,243.439987 1286.345581,241.693298 1286.345581,239.865143 
	C1306.526611,239.865143 1325.930298,239.865143 1345.822021,239.865143 
	C1345.822021,241.980637 1345.823364,243.774750 1345.821899,245.568878 
	C1345.803223,267.563110 1345.783447,289.557343 1345.765991,311.551575 
	C1345.760742,318.102081 1345.763550,318.098022 1352.496338,318.094666 
	C1361.660645,318.090118 1370.824829,318.094757 1379.989136,318.091125 
	C1386.608765,318.088470 1386.731934,317.964172 1386.731812,311.463287 
	C1386.731445,263.475555 1386.731079,215.487839 1386.730713,166.500107 
M425.957581,281.428253 
	C405.695404,279.395477 385.433197,277.362732 364.464539,275.259125 
	C366.027893,272.769623 367.650146,270.681793 368.734680,268.344482 
	C370.402710,264.749695 372.528381,263.991699 376.606110,264.681427 
	C389.926086,266.934479 403.132660,266.240845 415.895111,261.157776 
	C439.076111,251.925201 447.903748,225.262024 434.784058,203.979919 
	C434.130280,202.919342 433.641541,201.757019 432.856354,200.209244 
	C438.906250,199.742844 444.369171,199.439758 449.796082,198.821060 
	C451.167999,198.664642 453.521698,197.557358 453.561157,196.791016 
	C453.873474,190.728485 453.734924,184.642700 453.734924,178.223373 
	C439.511597,178.223373 426.035492,178.237274 412.559479,178.209198 
	C410.401001,178.204697 408.177460,178.311920 406.095459,177.857254 
	C394.380829,175.298904 382.626312,175.340607 370.836395,177.060181 
	C340.518951,181.481979 323.672729,209.381927 334.138489,237.729599 
	C337.320709,246.348984 343.168701,252.690033 351.485077,257.593781 
	C346.147186,262.839722 340.991882,267.551697 336.246552,272.645569 
	C327.120331,282.442108 328.288757,293.148956 339.054108,301.084320 
	C339.388123,301.330505 339.487274,301.895325 339.348297,301.618073 
	C335.791016,306.765808 331.531616,311.120697 329.411652,316.343933 
	C323.554169,330.775665 330.597443,344.139252 346.217773,350.013092 
	C358.126709,354.491302 370.617767,355.218781 383.098633,355.446533 
	C398.995697,355.736633 414.757996,354.568848 429.443542,347.518097 
	C447.582550,338.809296 455.720337,321.480682 450.907104,301.950409 
	C449.131989,294.747650 445.112183,289.207611 438.420959,285.981720 
	C434.700745,284.188202 430.657501,283.064819 425.957581,281.428253 
M1631.797974,320.453522 
	C1652.008667,316.162231 1664.848999,300.202118 1664.827881,279.433899 
	C1664.811401,263.112976 1664.069702,246.746765 1665.046997,230.484604 
	C1665.924927,215.872849 1653.244507,195.131989 1635.056396,191.751694 
	C1626.074463,190.082397 1616.544067,190.049911 1607.415405,190.909424 
	C1600.358154,191.573898 1593.539917,194.778564 1586.301514,196.947998 
	C1586.251587,195.976379 1586.146484,194.875656 1586.145996,193.774887 
	C1586.137939,176.288254 1586.027466,158.800323 1586.224976,141.315903 
	C1586.275635,136.842865 1584.956421,135.003860 1580.284424,135.123917 
	C1570.465454,135.376190 1560.632812,135.354477 1550.811768,135.151550 
	C1546.439941,135.061218 1544.997681,136.711914 1545.055176,141.028610 
	C1545.247925,155.515015 1545.126831,170.005585 1545.126953,184.494568 
	C1545.127319,226.962265 1545.191895,269.430176 1545.040405,311.897369 
	C1545.023438,316.671875 1546.362427,318.548340 1551.292358,318.180115 
	C1556.426392,317.796631 1561.611084,318.094452 1566.773682,318.094452 
	C1574.880249,318.094452 1574.875000,318.093597 1576.311401,310.039825 
	C1576.347412,309.837799 1576.814453,309.712677 1577.212646,309.471680 
	C1593.567017,320.444275 1611.647339,323.598785 1631.797974,320.453522 
M1440.692505,320.948792 
	C1460.324219,324.019653 1478.569092,319.755066 1495.738281,310.083069 
	C1498.275024,318.205872 1498.275024,318.206818 1506.524048,318.186096 
	C1510.856445,318.175201 1515.204468,317.924805 1519.516724,318.213715 
	C1523.802979,318.500916 1525.325684,317.101532 1525.308350,312.610901 
	C1525.162231,274.785675 1525.174194,236.959381 1525.329590,199.134186 
	C1525.348389,194.574997 1523.586060,193.442886 1519.414185,193.540344 
	C1510.087891,193.758209 1500.746094,193.820358 1491.424194,193.522797 
	C1486.569092,193.367828 1484.763794,194.653641 1484.817139,199.922119 
	C1485.083984,226.247437 1484.983765,252.577332 1484.819946,278.904419 
	C1484.807983,280.836456 1483.809082,283.697327 1482.355713,284.527588 
	C1475.116333,288.663086 1467.218140,290.422272 1458.828857,289.155396 
	C1452.221558,288.157562 1448.755371,284.676880 1448.016724,278.056610 
	C1447.703491,275.250824 1447.692139,272.401886 1447.689209,269.572418 
	C1447.665405,246.243713 1447.597290,222.914505 1447.744019,199.586700 
	C1447.772217,195.084045 1446.293335,193.401260 1441.680542,193.527039 
	C1431.689941,193.799423 1421.686401,193.656448 1411.688965,193.584518 
	C1408.598389,193.562286 1406.677612,194.143158 1406.695557,197.951920 
	C1406.830933,226.611542 1406.454590,255.278702 1406.994019,283.929260 
	C1407.278564,299.036285 1413.201538,311.561890 1428.322876,317.646973 
	C1431.994507,319.124512 1435.982056,319.816681 1440.692505,320.948792 
M1182.491943,157.847458 
	C1177.829590,157.847458 1173.167236,157.847473 1168.504883,157.847458 
	C1157.130615,157.847427 1157.130493,157.847412 1157.130493,168.978714 
	C1157.130493,177.438141 1157.130615,185.897568 1157.130615,194.405075 
	C1151.068604,195.890717 1145.481689,197.422333 1139.818359,198.579544 
	C1136.972778,199.161011 1135.923096,200.477127 1135.983765,203.314362 
	C1136.115112,209.472565 1136.116333,215.637253 1135.992432,221.795685 
	C1135.927490,225.020264 1137.259033,226.286102 1140.449219,226.211044 
	C1145.888672,226.083099 1151.333252,226.175797 1157.130615,226.175797 
	C1157.130615,233.771713 1157.042480,240.742447 1157.149414,247.710190 
	C1157.358765,261.348907 1156.945312,275.051178 1158.154541,288.605377 
	C1159.375000,302.286560 1166.461792,312.794739 1179.916870,317.679230 
	C1194.301025,322.901031 1208.980835,322.602600 1223.570923,318.498077 
	C1225.023560,318.089386 1226.790894,315.654602 1226.876953,314.076447 
	C1227.248047,307.269501 1226.924805,300.428223 1227.101685,293.605865 
	C1227.200928,289.779785 1225.540649,288.686127 1221.949341,288.921265 
	C1217.810547,289.192291 1213.605469,289.360352 1209.493530,288.941711 
	C1201.553345,288.133270 1197.581299,283.690338 1197.522705,275.717468 
	C1197.410034,260.399139 1197.473999,245.079361 1197.500732,229.760239 
	C1197.502686,228.665497 1197.797607,227.571274 1197.996582,226.198578 
	C1206.097412,226.198578 1213.901245,226.060059 1221.696411,226.259094 
	C1225.397095,226.353561 1226.807495,224.897018 1226.759033,221.313431 
	C1226.659668,213.988556 1226.530640,206.654190 1226.799438,199.337891 
	C1226.965210,194.825180 1225.436157,192.992752 1220.791626,193.150589 
	C1213.180542,193.409225 1205.554321,193.220596 1197.379150,193.220596 
	C1197.379150,181.318527 1197.379150,169.910919 1197.379150,157.847458 
	C1192.379761,157.847458 1187.933105,157.847458 1182.491943,157.847458 
M624.820740,286.363983 
	C623.103333,280.848877 621.385986,275.333771 619.628296,269.689362 
	C615.044800,270.687500 611.033875,271.744781 606.959351,272.416077 
	C590.274414,275.165131 584.268921,270.136108 584.209229,253.370728 
	C584.148682,236.379547 584.186829,219.387955 584.208313,202.396591 
	C584.210388,200.790771 584.402832,199.185181 584.543335,197.016495 
	C596.382568,197.016495 607.779480,197.016495 619.659241,197.016495 
	C619.659241,189.635834 619.806213,182.836288 619.494690,176.057831 
	C619.449951,175.083481 617.229736,173.475998 615.957275,173.416183 
	C609.973572,173.134872 603.969299,173.291306 597.972351,173.291458 
	C584.195679,173.291824 584.195679,173.291824 584.195679,159.490936 
	C584.195679,152.238632 584.195679,144.986313 584.195679,137.357651 
	C577.962708,137.357651 572.480835,137.591599 567.030029,137.280914 
	C562.937012,137.047623 561.293701,138.099426 560.821228,142.588364 
	C558.716248,162.586365 552.186951,169.956009 532.757812,175.655640 
	C531.660095,175.977676 530.149658,177.431137 530.110535,178.409225 
	C529.866577,184.501831 529.987488,190.609039 529.987488,197.145447 
	C534.933533,197.145447 539.242065,197.340485 543.524048,197.087097 
	C547.318176,196.862579 548.364014,198.389740 548.329529,202.031631 
	C548.174927,218.355240 548.180298,234.681732 548.301758,251.005920 
	C548.356262,258.322296 548.393372,265.682251 549.188293,272.940308 
	C550.674805,286.512604 558.101746,294.973969 571.256836,298.035950 
	C589.355896,302.248718 606.639343,298.734314 623.288757,291.335175 
	C624.288940,290.890686 624.448364,288.554382 624.820740,286.363983 
M805.501831,245.000214 
	C820.264954,245.000214 835.028076,245.000214 849.713745,245.000214 
	C849.713745,235.358826 849.713745,226.286850 849.713745,216.824646 
	C829.357910,216.824646 809.285706,216.824646 788.828857,216.824646 
	C788.828857,196.355576 788.828857,176.281372 788.828857,156.282074 
	C779.361816,156.282074 770.289795,156.282074 760.828369,156.282074 
	C760.828369,176.639252 760.828369,196.711349 760.828369,217.173859 
	C740.362549,217.173859 720.290466,217.173859 700.284485,217.173859 
	C700.284485,226.646423 700.284485,235.718552 700.284485,245.177155 
	C720.637024,245.177155 740.709473,245.177155 761.172607,245.177155 
	C761.172607,265.639709 761.172607,285.711731 761.172607,305.715332 
	C770.644653,305.715332 779.715881,305.715332 789.177307,305.715332 
	C789.177307,285.358765 789.177307,265.286224 789.177307,245.000214 
	C794.549377,245.000214 799.526306,245.000214 805.501831,245.000214 
M516.497070,299.265503 
	C521.584839,299.265503 526.672546,299.265503 532.164429,299.265503 
	C532.164429,293.355133 532.304688,288.218719 532.046936,283.102386 
	C531.994934,282.070343 530.614319,280.656067 529.527893,280.229919 
	C527.874146,279.581360 525.939209,279.663788 524.129395,279.396851 
	C516.315369,278.244202 516.302917,278.239044 516.301270,270.104767 
	C516.295227,240.802505 516.298767,211.500244 516.298767,182.197983 
	C516.298767,180.281464 516.298828,178.364960 516.298828,175.988281 
	C502.217194,175.988281 488.932129,175.923508 475.648041,176.009735 
	C465.845032,176.073349 467.572540,174.593018 466.172394,184.326569 
	C464.608154,195.200745 464.730316,195.362518 475.034790,198.851730 
	C478.902161,200.161255 480.620239,202.099976 480.576355,206.371933 
	C480.372925,226.181946 480.447296,245.994858 480.431854,265.806732 
	C480.422272,278.075928 480.422485,278.031647 468.160950,280.116699 
	C466.959442,280.321045 464.997925,281.452698 464.959076,282.232178 
	C464.681213,287.804169 464.810699,293.396484 464.810699,299.265778 
	C482.233856,299.265778 498.866180,299.265778 516.497070,299.265503 
M1123.619019,316.902405 
	C1123.891846,314.944824 1124.400635,312.987488 1124.402588,311.029633 
	C1124.439209,273.558685 1124.364746,236.087540 1124.476318,198.616928 
	C1124.489014,194.376450 1122.876099,193.092438 1118.874023,193.169815 
	C1109.717651,193.346817 1100.555664,193.225769 1091.395874,193.224731 
	C1083.931274,193.223877 1083.759521,193.381836 1083.760864,200.657181 
	C1083.766846,235.797241 1083.777832,270.937317 1083.787598,306.077362 
	C1083.791016,318.868774 1082.555298,318.232239 1096.009277,318.070435 
	C1104.958130,317.962799 1113.904541,317.655212 1123.619019,316.902405 
M1125.755615,165.814468 
	C1125.864136,163.994659 1126.147095,162.165680 1126.052002,160.356567 
	C1125.579956,151.373016 1120.963135,144.962357 1112.999390,141.283768 
	C1104.578003,137.393860 1096.313843,138.553513 1089.215820,144.471420 
	C1082.462769,150.101578 1079.682983,157.490952 1081.800537,166.304321 
	C1084.214844,176.352921 1092.641357,183.141495 1102.987183,183.466064 
	C1113.525757,183.796646 1122.106445,177.363693 1125.755615,165.814468 
M490.084259,156.861954 
	C508.967377,158.562424 518.532166,149.785202 516.829834,132.318481 
	C515.986206,123.662125 510.956757,117.802689 502.638947,115.785683 
	C491.803101,113.158058 481.466339,116.179817 477.015930,123.276115 
	C469.133911,135.844193 475.142639,152.301620 490.084259,156.861954 
z"/>
<path fill="#F05236" opacity="1.000000" stroke="none" 
	d="
M106.694237,320.304077 
	C83.602135,297.212006 60.735680,274.394012 37.900459,251.544830 
	C30.060946,243.700531 29.587193,234.516464 37.212357,226.815781 
	C60.991848,202.800781 84.975525,178.987961 108.888977,155.105698 
	C109.350960,154.644333 109.922775,154.292953 110.970375,153.482559 
	C114.263046,156.669708 117.583328,159.833206 120.845367,163.055664 
	C123.924484,166.097443 126.929810,169.213776 129.990067,172.274857 
	C134.801712,177.087799 140.269409,180.956879 138.059769,189.757629 
	C136.586395,195.625885 140.798859,200.996460 145.979614,204.308304 
	C148.670807,206.028687 149.318024,207.905853 149.303757,210.819809 
	C149.207474,230.481735 149.184418,250.144852 149.323654,269.806274 
	C149.346069,272.971649 148.470078,274.840820 145.753067,276.691498 
	C138.970978,281.311066 136.246445,289.367310 138.272476,296.908783 
	C140.291580,304.424500 146.958862,310.051270 154.812683,310.867645 
	C162.345108,311.650635 169.898239,307.302734 173.526291,300.095367 
	C177.527039,292.147614 175.096100,282.918274 167.737946,276.801941 
	C166.318680,275.622162 164.976913,273.389832 164.959427,271.629547 
	C164.757492,251.302902 164.814758,230.973648 164.822464,210.645096 
	C164.822678,210.049149 165.034103,209.453262 165.488052,207.058105 
	C170.480499,212.380432 174.609085,216.823822 178.788925,221.218475 
	C180.624054,223.147903 182.478088,225.075165 184.474136,226.832367 
	C188.350784,230.245132 190.437531,233.570297 189.448257,239.567902 
	C187.816513,249.460724 196.923660,258.741364 207.067291,259.153748 
	C217.867584,259.592834 226.516953,251.697678 226.899231,241.051086 
	C227.272278,230.661545 219.114151,221.264008 208.881058,221.931915 
	C202.529877,222.346466 198.762909,219.987595 194.878036,215.743469 
	C189.372635,209.728943 183.235199,204.292831 177.731979,198.276489 
	C176.197678,196.599106 175.093475,193.688934 175.247620,191.444244 
	C176.169525,178.018967 166.781998,168.844650 153.265015,170.189667 
	C151.680573,170.347321 149.488602,169.923569 148.422913,168.894577 
	C140.037964,160.798355 131.856552,152.491272 123.621613,144.239960 
	C123.161217,143.778641 122.781761,143.236526 121.936684,142.214432 
	C125.534454,138.574112 129.096252,134.957184 132.672913,131.355011 
	C136.075378,127.928268 139.493866,124.517433 142.904404,121.098686 
	C150.904846,113.078987 160.397415,112.984894 168.423523,120.988136 
	C181.152939,133.681290 193.790421,146.466583 206.501709,159.177979 
	C228.510895,181.187363 250.534561,203.182266 272.577057,225.158295 
	C282.467865,235.019257 282.705963,243.266083 272.893646,253.110031 
	C238.106842,288.009094 203.253830,322.842224 168.386383,357.660767 
	C160.867508,365.169128 151.638321,365.150116 144.048248,357.632111 
	C131.625778,345.327637 119.299187,332.926361 106.694237,320.304077 
z"/>
<path fill="#242424" opacity="1.000000" stroke="none" 
	d="
M994.348389,284.151855 
	C1002.290527,283.909698 1009.769226,283.644531 1017.248657,283.401703 
	C1019.814636,283.318359 1021.074524,282.384033 1021.032776,279.467346 
	C1020.877930,268.647583 1020.971069,257.824280 1020.971069,246.134430 
	C1014.021423,246.134430 1007.270203,246.134384 1000.518921,246.134430 
	C993.871582,246.134491 993.863037,246.134552 993.855469,239.536575 
	C993.846497,231.705841 993.977356,223.872299 993.800232,216.045563 
	C993.716980,212.366150 995.102295,211.032257 998.767212,211.051819 
	C1018.093628,211.155090 1037.421143,211.150589 1056.747681,211.048706 
	C1060.670654,211.028046 1061.978027,212.645981 1061.965454,216.454498 
	C1061.869629,245.444641 1061.802612,274.435944 1062.006958,303.424896 
	C1062.038452,307.905548 1059.165894,309.113098 1056.276733,310.527863 
	C1037.266357,319.836548 1017.065369,323.295532 996.108093,321.519135 
	C986.716125,320.723053 977.190063,319.335541 968.174866,316.685516 
	C944.016418,309.584015 928.783752,293.002075 922.017883,269.048370 
	C913.721069,239.674301 914.245911,210.052246 922.699768,180.828171 
	C931.684326,149.769684 953.230103,132.944885 984.996094,129.155746 
	C1004.004883,126.888313 1022.925842,128.145874 1041.499146,132.926056 
	C1055.020142,136.405945 1054.988770,136.577438 1051.762451,150.011581 
	C1050.558472,155.024338 1049.266968,160.016006 1048.046631,165.024902 
	C1046.443237,171.606705 1046.366577,171.702301 1040.129028,169.816925 
	C1026.519043,165.703171 1012.543457,164.908493 998.552307,166.193344 
	C977.902161,168.089676 966.048523,178.211945 961.025879,198.407990 
	C956.158569,217.979843 956.270447,237.751434 962.171021,257.119080 
	C966.897156,272.631409 977.124878,282.397827 994.348389,284.151855 
z"/>
<path fill="#242424" opacity="1.000000" stroke="none" 
	d="
M1386.730713,167.000122 
	C1386.731079,215.487839 1386.731445,263.475555 1386.731812,311.463287 
	C1386.731934,317.964172 1386.608765,318.088470 1379.989136,318.091125 
	C1370.824829,318.094757 1361.660645,318.090118 1352.496338,318.094666 
	C1345.763550,318.098022 1345.760742,318.102081 1345.765991,311.551575 
	C1345.783447,289.557343 1345.803223,267.563110 1345.821899,245.568878 
	C1345.823364,243.774750 1345.822021,241.980637 1345.822021,239.865143 
	C1325.930298,239.865143 1306.526611,239.865143 1286.345581,239.865143 
	C1286.345581,241.693298 1286.345337,243.439987 1286.345459,245.186661 
	C1286.347046,267.514282 1286.253784,289.842651 1286.431152,312.168854 
	C1286.466431,316.604370 1285.413574,318.393097 1280.570801,318.209137 
	C1270.587646,317.829987 1260.577637,317.965851 1250.584106,318.161011 
	C1246.830078,318.234283 1245.686890,316.856018 1245.692017,313.207794 
	C1245.773560,255.556015 1245.788086,197.904022 1245.684570,140.252304 
	C1245.677124,136.093536 1247.462402,135.136017 1251.097046,135.179184 
	C1260.759888,135.293976 1270.430542,135.408066 1280.086914,135.131805 
	C1284.787109,134.997330 1286.526733,136.377335 1286.456299,141.345688 
	C1286.191772,160.003860 1286.347168,178.667969 1286.345215,197.329865 
	C1286.345093,199.132858 1286.345215,200.935837 1286.345215,203.068512 
	C1306.262573,203.068512 1325.807129,203.068512 1345.822021,203.068512 
	C1345.822021,199.505447 1345.822144,196.208817 1345.822021,192.912186 
	C1345.822021,175.583298 1345.934326,158.253159 1345.743286,140.926376 
	C1345.694580,136.517380 1347.294312,135.050568 1351.570312,135.134842 
	C1361.563843,135.331757 1371.565063,135.308578 1381.560181,135.160324 
	C1385.477417,135.102234 1386.844971,136.652832 1386.765015,140.507950 
	C1386.585327,149.168518 1386.722412,157.835648 1386.730713,167.000122 
z"/>
<path fill="#F05337" opacity="1.000000" stroke="none" 
	d="
M426.358704,281.533813 
	C430.657501,283.064819 434.700745,284.188202 438.420959,285.981720 
	C445.112183,289.207611 449.131989,294.747650 450.907104,301.950409 
	C455.720337,321.480682 447.582550,338.809296 429.443542,347.518097 
	C414.757996,354.568848 398.995697,355.736633 383.098633,355.446533 
	C370.617767,355.218781 358.126709,354.491302 346.217773,350.013092 
	C330.597443,344.139252 323.554169,330.775665 329.411652,316.343933 
	C331.531616,311.120697 335.791016,306.765808 339.348297,301.618073 
	C339.487274,301.895325 339.388123,301.330505 339.054108,301.084320 
	C328.288757,293.148956 327.120331,282.442108 336.246552,272.645569 
	C340.991882,267.551697 346.147186,262.839722 351.485077,257.593781 
	C343.168701,252.690033 337.320709,246.348984 334.138489,237.729599 
	C323.672729,209.381927 340.518951,181.481979 370.836395,177.060181 
	C382.626312,175.340607 394.380829,175.298904 406.095459,177.857254 
	C408.177460,178.311920 410.401001,178.204697 412.559479,178.209198 
	C426.035492,178.237274 439.511597,178.223373 453.734924,178.223373 
	C453.734924,184.642700 453.873474,190.728485 453.561157,196.791016 
	C453.521698,197.557358 451.167999,198.664642 449.796082,198.821060 
	C444.369171,199.439758 438.906250,199.742844 432.856354,200.209244 
	C433.641541,201.757019 434.130280,202.919342 434.784058,203.979919 
	C447.903748,225.262024 439.076111,251.925201 415.895111,261.157776 
	C403.132660,266.240845 389.926086,266.934479 376.606110,264.681427 
	C372.528381,263.991699 370.402710,264.749695 368.734680,268.344482 
	C367.650146,270.681793 366.027893,272.769623 364.464539,275.259125 
	C385.433197,277.362732 405.695404,279.395477 426.358704,281.533813 
M404.583588,206.014603 
	C398.732819,197.633453 379.572571,198.122009 372.385712,204.064148 
	C362.797974,211.991394 362.760529,230.162827 372.607025,237.000519 
	C381.030792,242.850159 396.161865,241.894867 403.475769,235.051666 
	C410.599213,228.386627 411.269928,216.418732 404.583588,206.014603 
M410.252563,328.921112 
	C414.622192,326.624695 417.388428,323.106720 416.560730,318.089844 
	C415.678528,312.742645 410.858582,312.242218 406.606567,311.378052 
	C405.632965,311.180206 404.628998,311.110321 403.634949,311.037994 
	C391.041046,310.121399 378.447937,309.192719 365.849884,308.336945 
	C364.402435,308.238617 361.980957,308.071594 361.618927,308.769897 
	C359.470703,312.913696 356.887726,317.167999 356.221069,321.648499 
	C355.568085,326.037262 359.429138,328.877228 363.487335,329.987518 
	C378.883606,334.199829 394.279633,334.470398 410.252563,328.921112 
z"/>
<path fill="#242424" opacity="1.000000" stroke="none" 
	d="
M1631.388428,320.577881 
	C1611.647339,323.598785 1593.567017,320.444275 1577.212646,309.471680 
	C1576.814453,309.712677 1576.347412,309.837799 1576.311401,310.039825 
	C1574.875000,318.093597 1574.880249,318.094452 1566.773682,318.094452 
	C1561.611084,318.094452 1556.426392,317.796631 1551.292358,318.180115 
	C1546.362427,318.548340 1545.023438,316.671875 1545.040405,311.897369 
	C1545.191895,269.430176 1545.127319,226.962265 1545.126953,184.494568 
	C1545.126831,170.005585 1545.247925,155.515015 1545.055176,141.028610 
	C1544.997681,136.711914 1546.439941,135.061218 1550.811768,135.151550 
	C1560.632812,135.354477 1570.465454,135.376190 1580.284424,135.123917 
	C1584.956421,135.003860 1586.275635,136.842865 1586.224976,141.315903 
	C1586.027466,158.800323 1586.137939,176.288254 1586.145996,193.774887 
	C1586.146484,194.875656 1586.251587,195.976379 1586.301514,196.947998 
	C1593.539917,194.778564 1600.358154,191.573898 1607.415405,190.909424 
	C1616.544067,190.049911 1626.074463,190.082397 1635.056396,191.751694 
	C1653.244507,195.131989 1665.924927,215.872849 1665.046997,230.484604 
	C1664.069702,246.746765 1664.811401,263.112976 1664.827881,279.433899 
	C1664.848999,300.202118 1652.008667,316.162231 1631.388428,320.577881 
M1598.469238,222.822006 
	C1595.166992,223.907410 1591.690796,224.654297 1588.637085,226.223328 
	C1587.146240,226.989288 1585.542603,229.274918 1585.520752,230.893234 
	C1585.297119,247.532684 1585.314697,264.177246 1585.514038,280.817383 
	C1585.532104,282.318787 1587.039551,284.816925 1588.279907,285.121185 
	C1595.295776,286.842102 1602.421143,289.024963 1609.547241,289.169006 
	C1619.537598,289.370880 1624.627197,285.118835 1625.847290,275.264923 
	C1627.163574,264.634277 1627.713867,253.718246 1626.895630,243.057404 
	C1625.583740,225.965317 1616.375366,219.675735 1598.469238,222.822006 
z"/>
<path fill="#232323" opacity="1.000000" stroke="none" 
	d="
M1440.258423,320.909363 
	C1435.982056,319.816681 1431.994507,319.124512 1428.322876,317.646973 
	C1413.201538,311.561890 1407.278564,299.036285 1406.994019,283.929260 
	C1406.454590,255.278702 1406.830933,226.611542 1406.695557,197.951920 
	C1406.677612,194.143158 1408.598389,193.562286 1411.688965,193.584518 
	C1421.686401,193.656448 1431.689941,193.799423 1441.680542,193.527039 
	C1446.293335,193.401260 1447.772217,195.084045 1447.744019,199.586700 
	C1447.597290,222.914505 1447.665405,246.243713 1447.689209,269.572418 
	C1447.692139,272.401886 1447.703491,275.250824 1448.016724,278.056610 
	C1448.755371,284.676880 1452.221558,288.157562 1458.828857,289.155396 
	C1467.218140,290.422272 1475.116333,288.663086 1482.355713,284.527588 
	C1483.809082,283.697327 1484.807983,280.836456 1484.819946,278.904419 
	C1484.983765,252.577332 1485.083984,226.247437 1484.817139,199.922119 
	C1484.763794,194.653641 1486.569092,193.367828 1491.424194,193.522797 
	C1500.746094,193.820358 1510.087891,193.758209 1519.414185,193.540344 
	C1523.586060,193.442886 1525.348389,194.574997 1525.329590,199.134186 
	C1525.174194,236.959381 1525.162231,274.785675 1525.308350,312.610901 
	C1525.325684,317.101532 1523.802979,318.500916 1519.516724,318.213715 
	C1515.204468,317.924805 1510.856445,318.175201 1506.524048,318.186096 
	C1498.275024,318.206818 1498.275024,318.205872 1495.738281,310.083069 
	C1478.569092,319.755066 1460.324219,324.019653 1440.258423,320.909363 
z"/>
<path fill="#242424" opacity="1.000000" stroke="none" 
	d="
M1182.989258,157.847458 
	C1187.933105,157.847458 1192.379761,157.847458 1197.379150,157.847458 
	C1197.379150,169.910919 1197.379150,181.318527 1197.379150,193.220596 
	C1205.554321,193.220596 1213.180542,193.409225 1220.791626,193.150589 
	C1225.436157,192.992752 1226.965210,194.825180 1226.799438,199.337891 
	C1226.530640,206.654190 1226.659668,213.988556 1226.759033,221.313431 
	C1226.807495,224.897018 1225.397095,226.353561 1221.696411,226.259094 
	C1213.901245,226.060059 1206.097412,226.198578 1197.996582,226.198578 
	C1197.797607,227.571274 1197.502686,228.665497 1197.500732,229.760239 
	C1197.473999,245.079361 1197.410034,260.399139 1197.522705,275.717468 
	C1197.581299,283.690338 1201.553345,288.133270 1209.493530,288.941711 
	C1213.605469,289.360352 1217.810547,289.192291 1221.949341,288.921265 
	C1225.540649,288.686127 1227.200928,289.779785 1227.101685,293.605865 
	C1226.924805,300.428223 1227.248047,307.269501 1226.876953,314.076447 
	C1226.790894,315.654602 1225.023560,318.089386 1223.570923,318.498077 
	C1208.980835,322.602600 1194.301025,322.901031 1179.916870,317.679230 
	C1166.461792,312.794739 1159.375000,302.286560 1158.154541,288.605377 
	C1156.945312,275.051178 1157.358765,261.348907 1157.149414,247.710190 
	C1157.042480,240.742447 1157.130615,233.771713 1157.130615,226.175797 
	C1151.333252,226.175797 1145.888672,226.083099 1140.449219,226.211044 
	C1137.259033,226.286102 1135.927490,225.020264 1135.992432,221.795685 
	C1136.116333,215.637253 1136.115112,209.472565 1135.983765,203.314362 
	C1135.923096,200.477127 1136.972778,199.161011 1139.818359,198.579544 
	C1145.481689,197.422333 1151.068604,195.890717 1157.130615,194.405075 
	C1157.130615,185.897568 1157.130493,177.438141 1157.130493,168.978714 
	C1157.130493,157.847412 1157.130615,157.847427 1168.504883,157.847458 
	C1173.167236,157.847473 1177.829590,157.847458 1182.989258,157.847458 
z"/>
<path fill="#F05337" opacity="1.000000" stroke="none" 
	d="
M624.909851,286.731171 
	C624.448364,288.554382 624.288940,290.890686 623.288757,291.335175 
	C606.639343,298.734314 589.355896,302.248718 571.256836,298.035950 
	C558.101746,294.973969 550.674805,286.512604 549.188293,272.940308 
	C548.393372,265.682251 548.356262,258.322296 548.301758,251.005920 
	C548.180298,234.681732 548.174927,218.355240 548.329529,202.031631 
	C548.364014,198.389740 547.318176,196.862579 543.524048,197.087097 
	C539.242065,197.340485 534.933533,197.145447 529.987488,197.145447 
	C529.987488,190.609039 529.866577,184.501831 530.110535,178.409225 
	C530.149658,177.431137 531.660095,175.977676 532.757812,175.655640 
	C552.186951,169.956009 558.716248,162.586365 560.821228,142.588364 
	C561.293701,138.099426 562.937012,137.047623 567.030029,137.280914 
	C572.480835,137.591599 577.962708,137.357651 584.195679,137.357651 
	C584.195679,144.986313 584.195679,152.238632 584.195679,159.490936 
	C584.195679,173.291824 584.195679,173.291824 597.972351,173.291458 
	C603.969299,173.291306 609.973572,173.134872 615.957275,173.416183 
	C617.229736,173.475998 619.449951,175.083481 619.494690,176.057831 
	C619.806213,182.836288 619.659241,189.635834 619.659241,197.016495 
	C607.779480,197.016495 596.382568,197.016495 584.543335,197.016495 
	C584.402832,199.185181 584.210388,200.790771 584.208313,202.396591 
	C584.186829,219.387955 584.148682,236.379547 584.209229,253.370728 
	C584.268921,270.136108 590.274414,275.165131 606.959351,272.416077 
	C611.033875,271.744781 615.044800,270.687500 619.628296,269.689362 
	C621.385986,275.333771 623.103333,280.848877 624.909851,286.731171 
z"/>
<path fill="#000000" opacity="1.000000" stroke="none" 
	d="
M805.002563,245.000214 
	C799.526306,245.000214 794.549377,245.000214 789.177307,245.000214 
	C789.177307,265.286224 789.177307,285.358765 789.177307,305.715332 
	C779.715881,305.715332 770.644653,305.715332 761.172607,305.715332 
	C761.172607,285.711731 761.172607,265.639709 761.172607,245.177155 
	C740.709473,245.177155 720.637024,245.177155 700.284485,245.177155 
	C700.284485,235.718552 700.284485,226.646423 700.284485,217.173859 
	C720.290466,217.173859 740.362549,217.173859 760.828369,217.173859 
	C760.828369,196.711349 760.828369,176.639252 760.828369,156.282074 
	C770.289795,156.282074 779.361816,156.282074 788.828857,156.282074 
	C788.828857,176.281372 788.828857,196.355576 788.828857,216.824646 
	C809.285706,216.824646 829.357910,216.824646 849.713745,216.824646 
	C849.713745,226.286850 849.713745,235.358826 849.713745,245.000214 
	C835.028076,245.000214 820.264954,245.000214 805.002563,245.000214 
z"/>
<path fill="#F05235" opacity="1.000000" stroke="none" 
	d="
M515.997803,299.265625 
	C498.866180,299.265778 482.233856,299.265778 464.810699,299.265778 
	C464.810699,293.396484 464.681213,287.804169 464.959076,282.232178 
	C464.997925,281.452698 466.959442,280.321045 468.160950,280.116699 
	C480.422485,278.031647 480.422272,278.075928 480.431854,265.806732 
	C480.447296,245.994858 480.372925,226.181946 480.576355,206.371933 
	C480.620239,202.099976 478.902161,200.161255 475.034790,198.851730 
	C464.730316,195.362518 464.608154,195.200745 466.172394,184.326569 
	C467.572540,174.593018 465.845032,176.073349 475.648041,176.009735 
	C488.932129,175.923508 502.217194,175.988281 516.298828,175.988281 
	C516.298828,178.364960 516.298767,180.281464 516.298767,182.197983 
	C516.298767,211.500244 516.295227,240.802505 516.301270,270.104767 
	C516.302917,278.239044 516.315369,278.244202 524.129395,279.396851 
	C525.939209,279.663788 527.874146,279.581360 529.527893,280.229919 
	C530.614319,280.656067 531.994934,282.070343 532.046936,283.102386 
	C532.304688,288.218719 532.164429,293.355133 532.164429,299.265503 
	C526.672546,299.265503 521.584839,299.265503 515.997803,299.265625 
z"/>
<path fill="#232323" opacity="1.000000" stroke="none" 
	d="
M1123.235596,317.169769 
	C1113.904541,317.655212 1104.958130,317.962799 1096.009277,318.070435 
	C1082.555298,318.232239 1083.791016,318.868774 1083.787598,306.077362 
	C1083.777832,270.937317 1083.766846,235.797241 1083.760864,200.657181 
	C1083.759521,193.381836 1083.931274,193.223877 1091.395874,193.224731 
	C1100.555664,193.225769 1109.717651,193.346817 1118.874023,193.169815 
	C1122.876099,193.092438 1124.489014,194.376450 1124.476318,198.616928 
	C1124.364746,236.087540 1124.439209,273.558685 1124.402588,311.029633 
	C1124.400635,312.987488 1123.891846,314.944824 1123.235596,317.169769 
z"/>
<path fill="#252525" opacity="1.000000" stroke="none" 
	d="
M1125.614746,166.210999 
	C1122.106445,177.363693 1113.525757,183.796646 1102.987183,183.466064 
	C1092.641357,183.141495 1084.214844,176.352921 1081.800537,166.304321 
	C1079.682983,157.490952 1082.462769,150.101578 1089.215820,144.471420 
	C1096.313843,138.553513 1104.578003,137.393860 1112.999390,141.283768 
	C1120.963135,144.962357 1125.579956,151.373016 1126.052002,160.356567 
	C1126.147095,162.165680 1125.864136,163.994659 1125.614746,166.210999 
z"/>
<path fill="#F05438" opacity="1.000000" stroke="none" 
	d="
M489.657410,156.796448 
	C475.142639,152.301620 469.133911,135.844193 477.015930,123.276115 
	C481.466339,116.179817 491.803101,113.158058 502.638947,115.785683 
	C510.956757,117.802689 515.986206,123.662125 516.829834,132.318481 
	C518.532166,149.785202 508.967377,158.562424 489.657410,156.796448 
z"/>
<path fill="#FEFBFA" opacity="1.000000" stroke="none" 
	d="
M404.827881,206.290375 
	C411.269928,216.418732 410.599213,228.386627 403.475769,235.051666 
	C396.161865,241.894867 381.030792,242.850159 372.607025,237.000519 
	C362.760529,230.162827 362.797974,211.991394 372.385712,204.064148 
	C379.572571,198.122009 398.732819,197.633453 404.827881,206.290375 
z"/>
<path fill="#FEFAF9" opacity="1.000000" stroke="none" 
	d="
M409.897980,329.052582 
	C394.279633,334.470398 378.883606,334.199829 363.487335,329.987518 
	C359.429138,328.877228 355.568085,326.037262 356.221069,321.648499 
	C356.887726,317.167999 359.470703,312.913696 361.618927,308.769897 
	C361.980957,308.071594 364.402435,308.238617 365.849884,308.336945 
	C378.447937,309.192719 391.041046,310.121399 403.634949,311.037994 
	C404.628998,311.110321 405.632965,311.180206 406.606567,311.378052 
	C410.858582,312.242218 415.678528,312.742645 416.560730,318.089844 
	C417.388428,323.106720 414.622192,326.624695 409.897980,329.052582 
z"/>
<path fill="#FBFBFB" opacity="1.000000" stroke="none" 
	d="
M1598.885986,222.707245 
	C1616.375366,219.675735 1625.583740,225.965317 1626.895630,243.057404 
	C1627.713867,253.718246 1627.163574,264.634277 1625.847290,275.264923 
	C1624.627197,285.118835 1619.537598,289.370880 1609.547241,289.169006 
	C1602.421143,289.024963 1595.295776,286.842102 1588.279907,285.121185 
	C1587.039551,284.816925 1585.532104,282.318787 1585.514038,280.817383 
	C1585.314697,264.177246 1585.297119,247.532684 1585.520752,230.893234 
	C1585.542603,229.274918 1587.146240,226.989288 1588.637085,226.223328 
	C1591.690796,224.654297 1595.166992,223.907410 1598.885986,222.707245 
z"/>
</svg>